# Blender v2.92.0 OBJ File: ''
# www.blender.org
mtllib Corridor.mtl
o Plane.001_Plane.003
v 1.000000 1.999964 -0.999965
v 1.000000 1.000468 -0.907100
v 1.000000 0.092900 -0.907100
v 1.000000 0.000000 -1.000000
v 1.000000 2.000000 -1.000000
v 1.000000 1.999964 0.999965
v 1.000000 1.907100 0.000468
v 1.000000 1.907100 -0.000468
v 1.000000 2.000000 1.000000
v -1.000000 0.092900 -0.907100
v -1.000000 0.000000 -1.000000
v -1.000000 -0.000000 1.000000
v -1.000000 0.092900 0.907100
v 1.000000 0.092900 0.907100
v 1.000000 -0.000000 1.000000
v 1.000000 1.000468 0.907100
v -1.000000 2.000000 -1.000000
v -1.000000 2.000000 1.000000
v -1.000000 1.907100 0.000468
v -1.000000 1.999965 0.999965
v -1.000000 1.999965 -0.999965
v -1.000000 1.907100 -0.000468
v -1.000000 1.000468 -0.907100
v -1.000000 1.000468 0.907100
v -1.000000 1.101979 -0.901400
v -1.000000 1.202213 -0.884369
v -1.000000 1.299910 -0.856223
v -1.000000 1.393841 -0.817316
v -1.000000 1.482826 -0.768136
v -1.000000 1.565744 -0.709302
v -1.000000 1.641554 -0.641554
v -1.000000 1.709302 -0.565744
v -1.000000 1.768136 -0.482826
v -1.000000 1.817316 -0.393841
v -1.000000 1.856223 -0.299910
v -1.000000 1.884369 -0.202213
v -1.000000 1.901400 -0.101979
v -1.000000 1.901400 0.101979
v -1.000000 1.884369 0.202213
v -1.000000 1.856223 0.299910
v -1.000000 1.817316 0.393841
v -1.000000 1.768136 0.482826
v -1.000000 1.709302 0.565744
v -1.000000 1.641554 0.641554
v -1.000000 1.565744 0.709302
v -1.000000 1.482826 0.768136
v -1.000000 1.393841 0.817316
v -1.000000 1.299910 0.856223
v -1.000000 1.202213 0.884369
v -1.000000 1.101979 0.901400
v 1.000000 1.901400 -0.101979
v 1.000000 1.884369 -0.202213
v 1.000000 1.856223 -0.299910
v 1.000000 1.817315 -0.393841
v 1.000000 1.768136 -0.482826
v 1.000000 1.709302 -0.565744
v 1.000000 1.641554 -0.641554
v 1.000000 1.565744 -0.709302
v 1.000000 1.482826 -0.768136
v 1.000000 1.393841 -0.817316
v 1.000000 1.299910 -0.856223
v 1.000000 1.202213 -0.884369
v 1.000000 1.101979 -0.901400
v 1.000000 1.101979 0.901400
v 1.000000 1.202213 0.884369
v 1.000000 1.299910 0.856223
v 1.000000 1.393841 0.817316
v 1.000000 1.482826 0.768136
v 1.000000 1.565744 0.709302
v 1.000000 1.641554 0.641554
v 1.000000 1.709302 0.565744
v 1.000000 1.768136 0.482826
v 1.000000 1.817315 0.393841
v 1.000000 1.856223 0.299910
v 1.000000 1.884369 0.202213
v 1.000000 1.901400 0.101979
vt 0.499766 0.953550
vt 1.000000 1.000000
vt 0.000000 1.000000
vt 0.000000 0.000000
vt 0.046450 0.499766
vt 1.000000 1.000000
vt 0.953550 0.046450
vt 0.953550 0.953550
vt 0.953550 0.046450
vt 0.953550 0.953550
vt 0.499766 0.046450
vt 1.000000 0.000000
vt 1.000000 0.000000
vt 0.000000 0.000000
vt 0.000000 1.000000
vt 0.000018 0.999982
vt 0.046450 0.500234
vt 0.499766 0.953550
vt 0.000018 0.000018
vt 0.499766 0.046450
vt 0.449010 0.953550
vt 0.398893 0.953550
vt 0.350045 0.953550
vt 0.303079 0.953550
vt 0.258587 0.953550
vt 0.217128 0.953550
vt 0.179223 0.953550
vt 0.145349 0.953550
vt 0.115932 0.953550
vt 0.091342 0.953550
vt 0.071888 0.953550
vt 0.057815 0.953550
vt 0.049300 0.953550
vt 0.046450 0.953550
vt 0.046450 0.499766
vt 0.046450 0.449010
vt 0.046450 0.398893
vt 0.046450 0.350045
vt 0.046450 0.303079
vt 0.046450 0.258587
vt 0.046450 0.217128
vt 0.046450 0.179223
vt 0.046450 0.145349
vt 0.046450 0.115932
vt 0.046450 0.091342
vt 0.046450 0.071888
vt 0.046450 0.057815
vt 0.046450 0.049300
vt 0.046450 0.046450
vt 0.046450 0.500234
vt 0.046450 0.550989
vt 0.000018 0.999982
vt 0.046450 0.601107
vt 0.046450 0.649955
vt 0.046450 0.696921
vt 0.046450 0.741413
vt 0.046450 0.782872
vt 0.046450 0.820777
vt 0.046450 0.854651
vt 0.046450 0.884068
vt 0.046450 0.908658
vt 0.046450 0.928112
vt 0.046450 0.942184
vt 0.046450 0.950700
vt 0.046450 0.953550
vt 0.449010 0.046450
vt 0.000018 0.000018
vt 0.398893 0.046450
vt 0.350045 0.046450
vt 0.303079 0.046450
vt 0.258587 0.046450
vt 0.217128 0.046450
vt 0.179223 0.046450
vt 0.145349 0.046450
vt 0.115932 0.046450
vt 0.091342 0.046450
vt 0.071888 0.046450
vt 0.057815 0.046450
vt 0.049300 0.046450
vt 0.046450 0.046450
vt 0.449010 0.953550
vt 0.398893 0.953550
vt 0.350045 0.953550
vt 0.303079 0.953550
vt 0.258587 0.953550
vt 0.217128 0.953550
vt 0.046450 0.953550
vt 0.046450 0.953550
vt 0.046450 0.782872
vt 0.046450 0.741413
vt 0.046450 0.696921
vt 0.046450 0.649955
vt 0.046450 0.601106
vt 0.046450 0.550989
vt 0.449010 0.046450
vt 0.398893 0.046450
vt 0.350045 0.046450
vt 0.303079 0.046450
vt 0.258587 0.046450
vt 0.217128 0.046450
vt 0.046450 0.046450
vt 0.046450 0.046450
vt 0.046450 0.217128
vt 0.046450 0.258587
vt 0.046450 0.303079
vt 0.046450 0.350045
vt 0.046450 0.398893
vt 0.046450 0.449010
vn 1.0000 0.0000 0.0000
vn -1.0000 -0.0000 0.0000
vn 0.0000 -1.0000 -0.0000
vn 0.0000 1.0000 0.0000
vn 0.0000 0.0000 -1.0000
vn 0.0000 -0.0000 1.0000
vn -0.9045 0.3015 0.3015
vn 0.7152 -0.0196 0.6986
vn -0.7135 -0.0196 0.7004
vn -0.7152 -0.0196 -0.6986
vn 0.9045 0.3015 -0.3015
vn -0.9045 0.3015 -0.3015
vn -0.7231 -0.0773 0.6864
vn 0.7231 -0.0773 0.6864
vn -0.7231 -0.1535 0.6735
vn 0.7231 -0.1537 0.6734
vn -0.7231 -0.2283 0.6520
vn 0.7231 -0.2282 0.6520
vn -0.7231 -0.2997 0.6224
vn 0.7231 -0.2997 0.6224
vn -0.7231 -0.3675 0.5849
vn 0.7231 -0.3675 0.5849
vn -0.7231 -0.4308 0.5400
vn 0.7231 -0.4306 0.5402
vn -0.7231 -0.4884 0.4885
vn 0.7231 -0.4885 0.4884
vn -0.7231 -0.5401 0.4307
vn 0.7231 -0.5402 0.4306
vn -0.7231 -0.5850 0.3674
vn 0.7231 -0.5848 0.3676
vn -0.7231 -0.6225 0.2996
vn 0.7231 -0.6225 0.2996
vn -0.7231 -0.6521 0.2280
vn 0.7231 -0.6521 0.2280
vn -0.7231 -0.6734 0.1537
vn 0.7231 -0.6734 0.1537
vn -0.7231 -0.6864 0.0775
vn 0.7231 -0.6864 0.0773
vn -0.7135 -0.7004 0.0196
vn 0.7231 -0.0773 -0.6864
vn 0.7135 -0.0196 -0.7004
vn -0.7231 -0.0773 -0.6864
vn 0.7231 -0.1537 -0.6734
vn -0.7231 -0.1537 -0.6734
vn 0.7231 -0.2283 -0.6520
vn -0.7231 -0.2280 -0.6521
vn 0.7231 -0.2997 -0.6224
vn -0.7231 -0.2997 -0.6224
vn 0.7231 -0.3675 -0.5849
vn -0.7231 -0.3675 -0.5849
vn 0.7231 -0.4308 -0.5400
vn -0.7231 -0.4306 -0.5402
vn 0.7231 -0.4884 -0.4885
vn -0.7231 -0.4885 -0.4883
vn 0.7231 -0.5401 -0.4307
vn -0.7231 -0.5401 -0.4307
vn 0.7231 -0.5849 -0.3675
vn -0.7231 -0.5849 -0.3675
vn 0.7231 -0.6223 -0.2998
vn -0.7231 -0.6223 -0.2998
vn 0.7231 -0.6520 -0.2281
vn -0.7231 -0.6520 -0.2281
vn 0.7231 -0.6734 -0.1537
vn -0.7231 -0.6734 -0.1537
vn 0.7231 -0.6864 -0.0775
vn -0.7231 -0.6864 -0.0773
vn 0.7135 -0.7004 -0.0196
vn 0.9045 0.3015 0.3015
vn 0.7135 -0.7004 0.0196
vn -0.7135 -0.7004 -0.0196
usemtl None
s off
f 2/1/1 4/2/1 5/3/1
f 5/3/1 9/4/1 7/5/1
f 11/6/2 13/7/2 10/8/2
f 14/9/1 4/2/1 3/10/1
f 16/11/1 9/4/1 15/12/1
f 11/6/3 15/12/3 12/13/3
f 18/14/4 5/3/4 17/15/4
f 13/7/4 3/10/4 10/8/4
f 17/15/2 21/16/2 22/17/2
f 17/15/5 4/2/5 11/6/5
f 12/13/6 9/4/6 18/14/6
f 11/6/2 23/18/2 17/15/2
f 18/14/2 20/19/2 24/20/2
f 23/18/2 25/21/2 21/16/2
f 25/21/2 26/22/2 21/16/2
f 26/22/2 27/23/2 21/16/2
f 27/23/2 28/24/2 21/16/2
f 28/24/2 29/25/2 21/16/2
f 29/25/2 30/26/2 21/16/2
f 30/26/2 31/27/2 21/16/2
f 31/27/2 32/28/2 21/16/2
f 32/28/2 33/29/2 21/16/2
f 33/29/2 34/30/2 21/16/2
f 34/30/2 35/31/2 21/16/2
f 35/31/2 36/32/2 21/16/2
f 36/32/2 37/33/2 21/16/2
f 37/33/2 22/34/2 21/16/2
f 19/35/2 38/36/2 20/19/2
f 38/36/2 39/37/2 20/19/2
f 39/37/2 40/38/2 20/19/2
f 40/38/2 41/39/2 20/19/2
f 41/39/2 42/40/2 20/19/2
f 42/40/2 43/41/2 20/19/2
f 43/41/2 44/42/2 20/19/2
f 44/42/2 45/43/2 20/19/2
f 45/43/2 46/44/2 20/19/2
f 46/44/2 47/45/2 20/19/2
f 47/45/2 48/46/2 20/19/2
f 48/46/2 49/47/2 20/19/2
f 49/47/2 50/48/2 20/19/2
f 50/48/2 24/49/2 20/19/2
f 8/50/1 51/51/1 1/52/1
f 51/51/1 52/53/1 1/52/1
f 52/53/1 53/54/1 1/52/1
f 53/54/1 54/55/1 1/52/1
f 54/55/1 55/56/1 1/52/1
f 55/56/1 56/57/1 1/52/1
f 56/57/1 57/58/1 1/52/1
f 57/58/1 58/59/1 1/52/1
f 58/59/1 59/60/1 1/52/1
f 59/60/1 60/61/1 1/52/1
f 60/61/1 61/62/1 1/52/1
f 61/62/1 62/63/1 1/52/1
f 62/63/1 63/64/1 1/52/1
f 63/64/1 2/65/1 1/52/1
f 16/11/1 64/66/1 6/67/1
f 64/66/1 65/68/1 6/67/1
f 65/68/1 66/69/1 6/67/1
f 66/69/1 67/70/1 6/67/1
f 67/70/1 68/71/1 6/67/1
f 68/71/1 69/72/1 6/67/1
f 69/72/1 70/73/1 6/67/1
f 70/73/1 71/74/1 6/67/1
f 71/74/1 72/75/1 6/67/1
f 72/75/1 73/76/1 6/67/1
f 73/76/1 74/77/1 6/67/1
f 74/77/1 75/78/1 6/67/1
f 75/78/1 76/79/1 6/67/1
f 76/79/1 7/80/1 6/67/1
f 22/17/3 7/5/3 19/35/3
f 5/3/1 1/52/1 2/1/1
f 2/1/1 3/10/1 4/2/1
f 9/4/1 6/67/1 7/5/1
f 7/5/1 8/50/1 1/52/1
f 1/52/1 5/3/1 7/5/1
f 11/6/2 12/13/2 13/7/2
f 14/9/1 15/12/1 4/2/1
f 15/12/1 14/9/1 16/11/1
f 16/11/1 6/67/1 9/4/1
f 11/6/3 4/2/3 15/12/3
f 18/14/4 9/4/4 5/3/4
f 13/7/4 14/9/4 3/10/4
f 22/17/2 19/35/2 20/19/2
f 20/19/2 18/14/2 22/17/2
f 18/14/2 17/15/2 22/17/2
f 17/15/5 5/3/5 4/2/5
f 12/13/6 15/12/6 9/4/6
f 10/8/2 23/18/2 11/6/2
f 23/18/2 21/16/2 17/15/2
f 24/20/2 13/7/2 12/13/2
f 12/13/2 18/14/2 24/20/2
f 22/17/3 8/50/3 7/5/3
s 1
f 10/8/7 2/1/8 23/18/9
f 24/20/10 14/9/11 13/7/12
f 2/1/8 25/21/13 23/18/9
f 63/81/14 26/22/15 25/21/13
f 62/82/16 27/23/17 26/22/15
f 61/83/18 28/24/19 27/23/17
f 60/84/20 29/25/21 28/24/19
f 59/85/22 30/26/23 29/25/21
f 58/86/24 31/87/25 30/26/23
f 57/88/26 32/89/27 31/87/25
f 56/57/28 33/90/29 32/89/27
f 55/56/30 34/91/31 33/90/29
f 54/55/32 35/92/33 34/91/31
f 53/54/34 36/93/35 35/92/33
f 52/53/36 37/94/37 36/93/35
f 51/51/38 22/17/39 37/94/37
f 24/20/10 64/66/40 16/11/41
f 50/95/42 65/68/43 64/66/40
f 49/96/44 66/69/45 65/68/43
f 48/97/46 67/70/47 66/69/45
f 47/98/48 68/71/49 67/70/47
f 46/99/50 69/72/51 68/71/49
f 45/100/52 70/101/53 69/72/51
f 44/102/54 71/103/55 70/101/53
f 43/41/56 72/104/57 71/103/55
f 42/40/58 73/105/59 72/104/57
f 41/39/60 74/106/61 73/105/59
f 40/38/62 75/107/63 74/106/61
f 39/37/64 76/108/65 75/107/63
f 38/36/66 7/5/67 76/108/65
f 10/8/7 3/10/68 2/1/8
f 24/20/10 16/11/41 14/9/11
f 2/1/8 63/81/14 25/21/13
f 63/81/14 62/82/16 26/22/15
f 62/82/16 61/83/18 27/23/17
f 61/83/18 60/84/20 28/24/19
f 60/84/20 59/85/22 29/25/21
f 59/85/22 58/86/24 30/26/23
f 58/86/24 57/88/26 31/87/25
f 57/88/26 56/57/28 32/89/27
f 56/57/28 55/56/30 33/90/29
f 55/56/30 54/55/32 34/91/31
f 54/55/32 53/54/34 35/92/33
f 53/54/34 52/53/36 36/93/35
f 52/53/36 51/51/38 37/94/37
f 51/51/38 8/50/69 22/17/39
f 24/20/10 50/95/42 64/66/40
f 50/95/42 49/96/44 65/68/43
f 49/96/44 48/97/46 66/69/45
f 48/97/46 47/98/48 67/70/47
f 47/98/48 46/99/50 68/71/49
f 46/99/50 45/100/52 69/72/51
f 45/100/52 44/102/54 70/101/53
f 44/102/54 43/41/56 71/103/55
f 43/41/56 42/40/58 72/104/57
f 42/40/58 41/39/60 73/105/59
f 41/39/60 40/38/62 74/106/61
f 40/38/62 39/37/64 75/107/63
f 39/37/64 38/36/66 76/108/65
f 38/36/66 19/35/70 7/5/67
