# Blender v2.92.0 OBJ File: ''
# www.blender.org
o Cube_Cube.001
v -1.270000 0.010000 1.800000
v -1.270000 -0.010000 -1.800000
v -1.270000 -0.010000 1.800000
v -1.270000 0.010000 -1.800000
v 1.270000 -0.010000 -1.800000
v 1.270000 0.010000 -1.800000
v 1.270000 -0.010000 1.800000
v 1.270000 0.010000 1.800000
vt 0.999664 0.004873
vt 1.009431 -0.971846
vt 1.009431 0.004873
vt 1.028966 -0.971846
vt 1.019198 0.004873
vt 1.019198 -0.971846
vt 0.999664 -0.971846
vt 0.989897 0.004873
vt 0.989897 -0.971846
vt 1.019198 -0.971846
vt 1.009431 -0.971846
vt 0.989897 0.004873
vt 0.013177 0.981592
vt 0.013177 0.004873
vt 0.989897 -0.971846
vt 0.013177 0.004873
vt 0.013177 -0.971846
vt 0.999664 -0.971846
vt 1.028966 0.004873
vt 0.999664 0.004873
vt 1.019198 0.004873
vt 0.989896 0.981592
vt 0.989896 0.004873
vn -1.0000 0.0000 0.0000
vn 0.0000 0.0000 -1.0000
vn 1.0000 0.0000 0.0000
vn 0.0000 0.0000 1.0000
vn 0.0000 -1.0000 -0.0000
vn 0.0000 1.0000 0.0000
s 1
f 1/1/1 2/2/1 3/3/1
f 4/4/2 5/5/2 2/6/2
f 6/7/3 7/8/3 5/9/3
f 8/10/4 3/3/4 7/11/4
f 5/12/5 3/13/5 2/14/5
f 4/15/6 8/16/6 6/17/6
f 1/1/1 4/18/1 2/2/1
f 4/4/2 6/19/2 5/5/2
f 6/7/3 8/20/3 7/8/3
f 8/10/4 1/21/4 3/3/4
f 5/12/5 7/22/5 3/13/5
f 4/15/6 1/23/6 8/16/6
