# Blender v2.92.0 OBJ File: ''
# www.blender.org
o Cube_Cube.003
v -1.000000 0.010000 1.000000
v -1.000000 -0.010000 -1.000000
v -1.000000 -0.010000 1.000000
v -1.000000 0.010000 -1.000000
v 1.000000 -0.010000 -1.000000
v 1.000000 0.010000 -1.000000
v 1.000000 -0.010000 1.000000
v 1.000000 0.010000 1.000000
vt 12.510000 0.499997
vt 12.760003 -24.500000
vt 12.760000 0.499997
vt 13.260003 -24.500000
vt 13.010003 0.499997
vt 13.010003 -24.500000
vt 12.510000 -24.500000
vt 12.259997 0.499997
vt 12.260000 -24.500000
vt 13.010003 -24.500000
vt 12.760003 -24.500000
vt 12.259997 0.500000
vt -12.740003 25.499996
vt -12.740003 0.500000
vt 12.259997 -24.500000
vt -12.740003 0.499997
vt -12.740003 -24.500000
vt 12.510003 -24.500000
vt 13.260003 0.499997
vt 12.509997 0.499997
vt 13.010003 0.499997
vt 12.259995 25.500000
vt 12.259995 0.500000
vn -1.0000 0.0000 0.0000
vn 0.0000 0.0000 -1.0000
vn 1.0000 0.0000 0.0000
vn 0.0000 0.0000 1.0000
vn 0.0000 -1.0000 -0.0000
vn 0.0000 1.0000 0.0000
s 1
f 1/1/1 2/2/1 3/3/1
f 4/4/2 5/5/2 2/6/2
f 6/7/3 7/8/3 5/9/3
f 8/10/4 3/3/4 7/11/4
f 5/12/5 3/13/5 2/14/5
f 4/15/6 8/16/6 6/17/6
f 1/1/1 4/18/1 2/2/1
f 4/4/2 6/19/2 5/5/2
f 6/7/3 8/20/3 7/8/3
f 8/10/4 1/21/4 3/3/4
f 5/12/5 7/22/5 3/13/5
f 4/15/6 1/23/6 8/16/6
