# Blender v2.92.0 OBJ File: ''
# www.blender.org
o Icosphere.001_Icosphere.005
v -13.127093 17.735384 10.605380
v -13.127093 17.735386 10.900676
v -13.127093 8.938648 16.135117
v -2.166017 8.938632 47.420094
v -2.166017 -0.000032 53.026066
v -2.166017 17.735353 53.026081
v -13.127093 8.938629 47.420094
v -13.127093 17.735359 53.026081
v -13.127093 -0.000024 53.026066
v -2.166017 -0.000004 16.135109
v -2.166017 8.938651 16.135117
v -13.127093 -0.000024 47.420086
v -13.127093 -0.000006 16.135109
v -7.400463 14.173098 16.135120
v -7.892652 14.173077 47.420101
v -7.892652 14.173098 16.135120
v -2.166017 0.000004 10.605368
v -13.062652 9.757478 47.420094
v -13.127093 17.735367 52.654549
v -12.870903 10.556159 47.420094
v -12.556577 11.315016 47.420094
v -12.127406 12.015361 47.420101
v -11.593963 12.639938 47.420101
v -10.969378 13.173388 47.420101
v -10.269041 13.602554 47.420101
v -9.510182 13.916880 47.420101
v -8.711494 14.108627 47.420101
v -7.400463 14.173077 47.420101
v -6.581615 14.108627 47.420101
v -2.166017 17.735363 52.654549
v -5.782930 13.916880 47.420101
v -5.024076 13.602554 47.420101
v -4.323731 13.173388 47.420101
v -3.699152 12.639938 47.420101
v -3.165709 12.015361 47.420101
v -2.736536 11.315016 47.420094
v -2.422211 10.556159 47.420094
v -2.230460 9.757478 47.420094
v -8.711494 14.108648 16.135120
v -9.510182 13.916900 16.135117
v -10.269041 13.602575 16.135117
v -10.969378 13.173405 16.135117
v -11.593963 12.639959 16.135117
v -12.127406 12.015379 16.135117
v -12.556577 11.315035 16.135117
v -12.870903 10.556181 16.135117
v -13.062652 9.757494 16.135117
v -2.230460 9.757497 16.135117
v -2.166017 17.735390 10.900676
v -2.422211 10.556184 16.135117
v -2.736536 11.315037 16.135117
v -3.165709 12.015379 16.135117
v -3.699152 12.639961 16.135117
v -4.323731 13.173409 16.135117
v -5.024076 13.602575 16.135117
v -5.782930 13.916904 16.135117
v -6.581615 14.108648 16.135120
v -13.127093 -0.000004 10.605368
v -2.166017 -0.000024 47.420086
v -2.166017 17.735390 10.605380
vt 0.737646 -0.457052
vt 0.737646 -0.454915
vt 0.614874 -0.417022
vt 0.592771 0.367265
vt 0.288121 0.324417
vt 0.720335 0.330341
vt 0.614874 -0.190544
vt 0.737646 -0.149961
vt 0.321671 -0.149961
vt 0.288121 0.578908
vt 0.592771 0.583084
vt 0.321671 -0.190544
vt 0.321671 -0.417022
vt 0.164060 0.606004
vt 0.156043 0.945721
vt 0.156043 0.606004
vt 0.288121 0.617055
vt 0.070784 0.545958
vt 0.634521 -0.190544
vt 0.737646 -0.152650
vt 0.654566 -0.190544
vt 0.674515 -0.190544
vt 0.693878 -0.190544
vt 0.712178 -0.190544
vt 0.728963 -0.190544
vt 0.105929 0.945721
vt 0.117336 0.945721
vt 0.070784 1.002560
vt 0.129697 0.945721
vt 0.142706 0.945721
vt 0.164060 0.945721
vt 0.177398 0.945721
vt 0.249320 1.002560
vt 0.190407 0.945721
vt 0.202767 0.945721
vt 0.214175 0.945721
vt 0.224348 0.945721
vt 0.680444 0.371849
vt 0.666103 0.370476
vt 0.720335 0.332904
vt 0.649743 0.369305
vt 0.631768 0.368365
vt 0.612620 0.367679
vt 0.142706 0.606004
vt 0.070784 0.549164
vt 0.129697 0.606004
vt 0.117336 0.606004
vt 0.105929 0.606004
vt 0.728963 -0.417022
vt 0.712178 -0.417022
vt 0.693878 -0.417022
vt 0.674515 -0.417022
vt 0.654566 -0.417022
vt 0.634521 -0.417022
vt 0.612620 0.583498
vt 0.720334 0.620942
vt -0.440012 1.023060
vt -0.422640 1.027037
vt -0.362461 1.077912
vt -0.404619 1.030427
vt -0.386394 1.033147
vt -0.368412 1.035131
vt -0.351117 1.036328
vt -0.334935 1.036711
vt 0.202767 0.606004
vt 0.190407 0.606004
vt 0.249320 0.549164
vt 0.177398 0.606004
vt 0.214175 0.606004
vt -0.352917 0.856452
vt -0.334935 0.858436
vt 0.666103 0.586295
vt 0.631768 0.584184
vt 0.249320 1.006595
vt 0.070784 1.006595
vt 0.321671 -0.457052
vt 0.288121 0.363090
vt 0.720334 0.622979
vt 0.249320 0.545958
vt 0.224348 0.606004
vt 0.649743 0.585124
vn 0.5782 -0.7741 -0.2579
vn 0.4613 -0.8666 -0.1905
vn 0.9996 -0.0263 -0.0113
vn -0.9996 -0.0263 0.0113
vn -1.0000 -0.0000 0.0000
vn -0.5794 -0.7737 0.2564
vn 0.9996 -0.0263 0.0113
vn 0.5794 -0.7737 0.2564
vn 1.0000 -0.0000 0.0000
vn -0.9996 -0.0263 -0.0113
vn -0.0274 -0.9557 -0.2932
vn 0.0268 -0.9565 0.2906
vn 0.0274 -0.9557 -0.2932
vn 0.9874 -0.1317 0.0877
vn 0.4613 -0.8666 0.1905
vn 0.9388 -0.2829 0.1965
vn 0.8639 -0.4214 0.2758
vn 0.7711 -0.5453 0.3287
vn 0.6646 -0.6543 0.3608
vn 0.5467 -0.7479 0.3764
vn 0.4187 -0.8259 0.3775
vn 0.2815 -0.8877 0.3645
vn 0.1363 -0.9322 0.3353
vn -0.0268 -0.9565 0.2906
vn -0.1363 -0.9322 0.3353
vn -0.4613 -0.8666 0.1905
vn -0.2815 -0.8877 0.3645
vn -0.4187 -0.8259 0.3775
vn -0.5467 -0.7479 0.3764
vn -0.6646 -0.6543 0.3608
vn -0.7711 -0.5453 0.3287
vn -0.8639 -0.4214 0.2758
vn -0.9388 -0.2829 0.1965
vn -0.9874 -0.1317 0.0877
vn 0.1363 -0.9322 -0.3353
vn 0.2815 -0.8877 -0.3645
vn 0.4187 -0.8259 -0.3775
vn 0.5467 -0.7479 -0.3764
vn 0.6646 -0.6543 -0.3608
vn 0.7711 -0.5453 -0.3287
vn 0.8639 -0.4214 -0.2758
vn 0.9388 -0.2829 -0.1965
vn 0.9874 -0.1317 -0.0877
vn -0.9874 -0.1317 -0.0877
vn -0.4613 -0.8666 -0.1905
vn -0.9388 -0.2829 -0.1965
vn -0.8639 -0.4214 -0.2758
vn -0.7711 -0.5453 -0.3287
vn -0.6647 -0.6543 -0.3608
vn -0.5467 -0.7479 -0.3764
vn -0.4187 -0.8259 -0.3775
vn -0.2815 -0.8877 -0.3645
vn -0.1363 -0.9322 -0.3353
vn -0.5782 -0.7741 -0.2579
s 1
f 1/1/1 2/2/2 3/3/3
f 4/4/4 5/5/5 6/6/6
f 7/7/7 8/8/8 9/9/9
f 10/10/5 4/4/4 11/11/10
f 3/3/3 12/12/9 13/13/9
f 14/14/11 15/15/12 16/16/13
f 17/17/5 10/10/5 11/11/10
f 14/14/11 16/16/13 1/18/1
f 7/7/7 18/19/14 19/20/15
f 18/19/14 20/21/16 19/20/15
f 20/21/16 21/22/17 19/20/15
f 21/22/17 22/23/18 19/20/15
f 22/23/18 23/24/19 19/20/15
f 23/24/19 24/25/20 19/20/15
f 24/26/20 25/27/21 19/28/15
f 25/27/21 26/29/22 19/28/15
f 26/29/22 27/30/23 19/28/15
f 27/30/23 15/15/12 19/28/15
f 28/31/24 29/32/25 30/33/26
f 29/32/25 31/34/27 30/33/26
f 31/34/27 32/35/28 30/33/26
f 32/35/28 33/36/29 30/33/26
f 33/36/29 34/37/30 30/33/26
f 34/38/30 35/39/31 30/40/26
f 35/39/31 36/41/32 30/40/26
f 36/41/32 37/42/33 30/40/26
f 37/42/33 38/43/34 30/40/26
f 38/43/34 4/4/4 30/40/26
f 16/16/13 39/44/35 2/45/2
f 39/44/35 40/46/36 2/45/2
f 40/46/36 41/47/37 2/45/2
f 41/47/37 42/48/38 2/45/2
f 42/49/38 43/50/39 2/2/2
f 43/50/39 44/51/40 2/2/2
f 44/51/40 45/52/41 2/2/2
f 45/52/41 46/53/42 2/2/2
f 46/53/42 47/54/43 2/2/2
f 47/54/43 3/3/3 2/2/2
f 11/11/10 48/55/44 49/56/45
f 48/57/44 50/58/46 49/59/45
f 50/58/46 51/60/47 49/59/45
f 51/60/47 52/61/48 49/59/45
f 52/61/48 53/62/49 49/59/45
f 53/62/49 54/63/50 49/59/45
f 54/63/50 55/64/51 49/59/45
f 55/65/51 56/66/52 49/67/45
f 56/66/52 57/68/53 49/67/45
f 57/68/53 14/14/11 49/67/45
f 3/3/3 18/19/14 7/7/7
f 47/54/43 20/21/16 18/19/14
f 46/53/42 21/22/17 20/21/16
f 45/52/41 22/23/18 21/22/17
f 44/51/40 23/24/19 22/23/18
f 43/50/39 24/25/20 23/24/19
f 24/26/20 41/47/37 25/27/21
f 41/47/37 26/29/22 25/27/21
f 40/46/36 27/30/23 26/29/22
f 39/44/35 15/15/12 27/30/23
f 14/14/11 29/32/25 28/31/24
f 57/68/53 31/34/27 29/32/25
f 56/66/52 32/35/28 31/34/27
f 55/65/51 33/36/29 32/35/28
f 54/69/50 34/37/30 33/36/29
f 53/62/49 35/70/31 34/71/30
f 52/72/48 36/41/32 35/39/31
f 36/41/32 50/73/46 37/42/33
f 50/73/46 38/43/34 37/42/33
f 48/55/44 4/4/4 38/43/34
f 6/74/6 8/75/8 15/15/12
f 13/13/9 58/76/9 3/3/3
f 58/76/9 1/1/1 3/3/3
f 6/6/6 30/40/26 4/4/4
f 4/4/4 59/77/5 5/5/5
f 9/9/9 12/12/9 7/7/7
f 7/7/7 19/20/15 8/8/8
f 10/10/5 59/77/5 4/4/4
f 3/3/3 7/7/7 12/12/9
f 14/14/11 28/31/24 15/15/12
f 49/56/45 60/78/54 11/11/10
f 60/78/54 17/17/5 11/11/10
f 2/45/2 1/18/1 16/16/13
f 1/18/1 60/79/54 14/14/11
f 60/79/54 49/67/45 14/14/11
f 3/3/3 47/54/43 18/19/14
f 47/54/43 46/53/42 20/21/16
f 46/53/42 45/52/41 21/22/17
f 45/52/41 44/51/40 22/23/18
f 44/51/40 43/50/39 23/24/19
f 43/50/39 42/49/38 24/25/20
f 24/26/20 42/48/38 41/47/37
f 41/47/37 40/46/36 26/29/22
f 40/46/36 39/44/35 27/30/23
f 39/44/35 16/16/13 15/15/12
f 14/14/11 57/68/53 29/32/25
f 57/68/53 56/66/52 31/34/27
f 56/66/52 55/65/51 32/35/28
f 55/65/51 54/69/50 33/36/29
f 54/69/50 53/80/49 34/37/30
f 53/62/49 52/61/48 35/70/31
f 52/72/48 51/81/47 36/41/32
f 36/41/32 51/81/47 50/73/46
f 50/73/46 48/55/44 38/43/34
f 48/55/44 11/11/10 4/4/4
f 8/75/8 19/28/15 15/15/12
f 15/15/12 28/31/24 6/74/6
f 28/31/24 30/33/26 6/74/6
